  999
file created by gear template generator
  0
SECTION
  2
HEADER
  9
$ACADVER
  1
AC1006
  9
$INSBASE
  10
0.0
  20
0.0
  30
0.0
  9
$EXTMIN
  10
0.0
  20
0.0
  9
$EXTMAX
  10
10000.0
  20
10000.0
  0
ENDSEC
  0
SECTION
  2
ENTITIES
  0
LINE
  8
0
  10
3.49632
  20
2.11825
  30
0
  11
3.49632
  21
2.11825
  31
0
  0
LINE
  8
0
  10
3.49632
  20
2.11825
  30
0
  11
3.50699
  21
2.08722
  31
0
  0
LINE
  8
0
  10
3.50699
  20
2.08722
  30
0
  11
3.51633
  21
2.07532
  31
0
  0
LINE
  8
0
  10
3.51633
  20
2.07532
  30
0
  11
3.52545
  21
2.06675
  31
0
  0
LINE
  8
0
  10
3.52545
  20
2.06675
  30
0
  11
3.53447
  21
2.05997
  31
0
  0
LINE
  8
0
  10
3.53447
  20
2.05997
  30
0
  11
3.54343
  21
2.05439
  31
0
  0
LINE
  8
0
  10
3.54343
  20
2.05439
  30
0
  11
3.56122
  21
2.0457
  31
0
  0
LINE
  8
0
  10
3.56122
  20
2.0457
  30
0
  11
3.57893
  21
2.03934
  31
0
  0
LINE
  8
0
  10
3.57893
  20
2.03934
  30
0
  11
3.59658
  21
2.03471
  31
0
  0
LINE
  8
0
  10
3.59658
  20
2.03471
  30
0
  11
3.61421
  21
2.03144
  31
0
  0
LINE
  8
0
  10
3.61421
  20
2.03144
  30
0
  11
3.64941
  21
2.02819
  31
0
  0
LINE
  8
0
  10
3.64941
  20
2.02819
  30
0
  11
3.68461
  21
2.02501
  31
0
  0
LINE
  8
0
  10
3.68461
  20
2.02501
  30
0
  11
3.71982
  21
2.01703
  31
0
  0
LINE
  8
0
  10
3.71982
  20
2.01703
  30
0
  11
3.75497
  21
2.00597
  31
0
  0
LINE
  8
0
  10
3.75497
  20
2.00597
  30
0
  11
3.79003
  21
1.99235
  31
0
  0
LINE
  8
0
  10
3.79003
  20
1.99235
  30
0
  11
3.82495
  21
1.97645
  31
0
  0
LINE
  8
0
  10
3.82495
  20
1.97645
  30
0
  11
3.85968
  21
1.95845
  31
0
  0
LINE
  8
0
  10
3.85968
  20
1.95845
  30
0
  11
3.89417
  21
1.93845
  31
0
  0
LINE
  8
0
  10
3.89417
  20
1.93845
  30
0
  11
3.92838
  21
1.91655
  31
0
  0
LINE
  8
0
  10
3.92838
  20
1.91655
  30
0
  11
3.96227
  21
1.89281
  31
0
  0
LINE
  8
0
  10
3.96227
  20
1.89281
  30
0
  11
3.99578
  21
1.86729
  31
0
  0
LINE
  8
0
  10
3.99578
  20
1.86729
  30
0
  11
4.02065
  21
1.847
  31
0
  0
LINE
  8
0
  10
4.02065
  20
1.847
  30
0
  11
3.96801
  21
1.52765
  31
0
  0
LINE
  8
0
  10
3.96801
  20
1.52765
  30
0
  11
3.93795
  21
1.51642
  31
0
  0
LINE
  8
0
  10
3.93795
  20
1.51642
  30
0
  11
3.89801
  21
1.50301
  31
0
  0
LINE
  8
0
  10
3.89801
  20
1.50301
  30
0
  11
3.8583
  21
1.4914
  31
0
  0
LINE
  8
0
  10
3.8583
  20
1.4914
  30
0
  11
3.81887
  21
1.48163
  31
0
  0
LINE
  8
0
  10
3.81887
  20
1.48163
  30
0
  11
3.77978
  21
1.47377
  31
0
  0
LINE
  8
0
  10
3.77978
  20
1.47377
  30
0
  11
3.74112
  21
1.46786
  31
0
  0
LINE
  8
0
  10
3.74112
  20
1.46786
  30
0
  11
3.70295
  21
1.46401
  31
0
  0
LINE
  8
0
  10
3.70295
  20
1.46401
  30
0
  11
3.66537
  21
1.46236
  31
0
  0
LINE
  8
0
  10
3.66537
  20
1.46236
  30
0
  11
3.62852
  21
1.46317
  31
0
  0
LINE
  8
0
  10
3.62852
  20
1.46317
  30
0
  11
3.59262
  21
1.46691
  31
0
  0
LINE
  8
0
  10
3.59262
  20
1.46691
  30
0
  11
3.55826
  21
1.4752
  31
0
  0
LINE
  8
0
  10
3.55826
  20
1.4752
  30
0
  11
3.52388
  21
1.48342
  31
0
  0
LINE
  8
0
  10
3.52388
  20
1.48342
  30
0
  11
3.50614
  21
1.48598
  31
0
  0
LINE
  8
0
  10
3.50614
  20
1.48598
  30
0
  11
3.48792
  21
1.48725
  31
0
  0
LINE
  8
0
  10
3.48792
  20
1.48725
  30
0
  11
3.46912
  21
1.48692
  31
0
  0
LINE
  8
0
  10
3.46912
  20
1.48692
  30
0
  11
3.44947
  21
1.4844
  31
0
  0
LINE
  8
0
  10
3.44947
  20
1.4844
  30
0
  11
3.4392
  21
1.48198
  31
0
  0
LINE
  8
0
  10
3.4392
  20
1.48198
  30
0
  11
3.42848
  21
1.47846
  31
0
  0
LINE
  8
0
  10
3.42848
  20
1.47846
  30
0
  11
3.41709
  21
1.47327
  31
0
  0
LINE
  8
0
  10
3.41709
  20
1.47327
  30
0
  11
3.40443
  21
1.465
  31
0
  0
LINE
  8
0
  10
3.40443
  20
1.465
  30
0
  11
3.38437
  21
1.43903
  31
0
  0
LINE
  8
0
  10
3.38437
  20
1.43903
  30
0
  11
3.33375
  21
1.33075
  31
0
  0
LINE
  8
0
  10
3.33375
  20
1.33075
  30
0
  11
3.27459
  21
1.22688
  31
0
  0
LINE
  8
0
  10
3.27459
  20
1.22688
  30
0
  11
3.26498
  21
1.19551
  31
0
  0
LINE
  8
0
  10
3.26498
  20
1.19551
  30
0
  11
3.26554
  21
1.1804
  31
0
  0
LINE
  8
0
  10
3.26554
  20
1.1804
  30
0
  11
3.26788
  21
1.1681
  31
0
  0
LINE
  8
0
  10
3.26788
  20
1.1681
  30
0
  11
3.27119
  21
1.15731
  31
0
  0
LINE
  8
0
  10
3.27119
  20
1.15731
  30
0
  11
3.27516
  21
1.14754
  31
0
  0
LINE
  8
0
  10
3.27516
  20
1.14754
  30
0
  11
3.28445
  21
1.13004
  31
0
  0
LINE
  8
0
  10
3.28445
  20
1.13004
  30
0
  11
3.29503
  21
1.11449
  31
0
  0
LINE
  8
0
  10
3.29503
  20
1.11449
  30
0
  11
3.30659
  21
1.10036
  31
0
  0
LINE
  8
0
  10
3.30659
  20
1.10036
  30
0
  11
3.31893
  21
1.08736
  31
0
  0
LINE
  8
0
  10
3.31893
  20
1.08736
  30
0
  11
3.3455
  21
1.06404
  31
0
  0
LINE
  8
0
  10
3.3455
  20
1.06404
  30
0
  11
3.37211
  21
1.04078
  31
0
  0
LINE
  8
0
  10
3.37211
  20
1.04078
  30
0
  11
3.3959
  21
1.01363
  31
0
  0
LINE
  8
0
  10
3.3959
  20
1.01363
  30
0
  11
3.41784
  21
0.98401
  31
0
  0
LINE
  8
0
  10
3.41784
  20
0.98401
  30
0
  11
3.4382
  21
0.95239
  31
0
  0
LINE
  8
0
  10
3.4382
  20
0.95239
  30
0
  11
3.4571
  21
0.91901
  31
0
  0
LINE
  8
0
  10
3.4571
  20
0.91901
  30
0
  11
3.47462
  21
0.88403
  31
0
  0
LINE
  8
0
  10
3.47462
  20
0.88403
  30
0
  11
3.49077
  21
0.84758
  31
0
  0
LINE
  8
0
  10
3.49077
  20
0.84758
  30
0
  11
3.50557
  21
0.80975
  31
0
  0
LINE
  8
0
  10
3.50557
  20
0.80975
  30
0
  11
3.51903
  21
0.77062
  31
0
  0
LINE
  8
0
  10
3.51903
  20
0.77062
  30
0
  11
3.53115
  21
0.73028
  31
0
  0
LINE
  8
0
  10
3.53115
  20
0.73028
  30
0
  11
3.53934
  21
0.69925
  31
0
  0
LINE
  8
0
  10
3.53934
  20
0.69925
  30
0
  11
3.30904
  21
0.47183
  31
0
  0
LINE
  8
0
  10
3.30904
  20
0.47183
  30
0
  11
3.27812
  21
0.48041
  31
0
  0
LINE
  8
0
  10
3.27812
  20
0.48041
  30
0
  11
3.23793
  21
0.49303
  31
0
  0
LINE
  8
0
  10
3.23793
  20
0.49303
  30
0
  11
3.19898
  21
0.50698
  31
0
  0
LINE
  8
0
  10
3.19898
  20
0.50698
  30
0
  11
3.16134
  21
0.52226
  31
0
  0
LINE
  8
0
  10
3.16134
  20
0.52226
  30
0
  11
3.12509
  21
0.53887
  31
0
  0
LINE
  8
0
  10
3.12509
  20
0.53887
  30
0
  11
3.09034
  21
0.55682
  31
0
  0
LINE
  8
0
  10
3.09034
  20
0.55682
  30
0
  11
3.05719
  21
0.57614
  31
0
  0
LINE
  8
0
  10
3.05719
  20
0.57614
  30
0
  11
3.02583
  21
0.5969
  31
0
  0
LINE
  8
0
  10
3.02583
  20
0.5969
  30
0
  11
2.99649
  21
0.61921
  31
0
  0
LINE
  8
0
  10
2.99649
  20
0.61921
  30
0
  11
2.96965
  21
0.64334
  31
0
  0
LINE
  8
0
  10
2.96965
  20
0.64334
  30
0
  11
2.94672
  21
0.67024
  31
0
  0
LINE
  8
0
  10
2.94672
  20
0.67024
  30
0
  11
2.92374
  21
0.6971
  31
0
  0
LINE
  8
0
  10
2.92374
  20
0.6971
  30
0
  11
2.91089
  21
0.7096
  31
0
  0
LINE
  8
0
  10
2.91089
  20
0.7096
  30
0
  11
2.8969
  21
0.72133
  31
0
  0
LINE
  8
0
  10
2.8969
  20
0.72133
  30
0
  11
2.88149
  21
0.73212
  31
0
  0
LINE
  8
0
  10
2.88149
  20
0.73212
  30
0
  11
2.86411
  21
0.74162
  31
0
  0
LINE
  8
0
  10
2.86411
  20
0.74162
  30
0
  11
2.85439
  21
0.74571
  31
0
  0
LINE
  8
0
  10
2.85439
  20
0.74571
  30
0
  11
2.84364
  21
0.74916
  31
0
  0
LINE
  8
0
  10
2.84364
  20
0.74916
  30
0
  11
2.83138
  21
0.75166
  31
0
  0
LINE
  8
0
  10
2.83138
  20
0.75166
  30
0
  11
2.81627
  21
0.75241
  31
0
  0
LINE
  8
0
  10
2.81627
  20
0.75241
  30
0
  11
2.78478
  21
0.74319
  31
0
  0
LINE
  8
0
  10
2.78478
  20
0.74319
  30
0
  11
2.68018
  21
0.68534
  31
0
  0
LINE
  8
0
  10
2.68018
  20
0.68534
  30
0
  11
2.57127
  21
0.63609
  31
0
  0
LINE
  8
0
  10
2.57127
  20
0.63609
  30
0
  11
2.54505
  21
0.61636
  31
0
  0
LINE
  8
0
  10
2.54505
  20
0.61636
  30
0
  11
2.53662
  21
0.6038
  31
0
  0
LINE
  8
0
  10
2.53662
  20
0.6038
  30
0
  11
2.53129
  21
0.59247
  31
0
  0
LINE
  8
0
  10
2.53129
  20
0.59247
  30
0
  11
2.52763
  21
0.5818
  31
0
  0
LINE
  8
0
  10
2.52763
  20
0.5818
  30
0
  11
2.52509
  21
0.57156
  31
0
  0
LINE
  8
0
  10
2.52509
  20
0.57156
  30
0
  11
2.52232
  21
0.55195
  31
0
  0
LINE
  8
0
  10
2.52232
  20
0.55195
  30
0
  11
2.52175
  21
0.53314
  31
0
  0
LINE
  8
0
  10
2.52175
  20
0.53314
  30
0
  11
2.52279
  21
0.51492
  31
0
  0
LINE
  8
0
  10
2.52279
  20
0.51492
  30
0
  11
2.52513
  21
0.49714
  31
0
  0
LINE
  8
0
  10
2.52513
  20
0.49714
  30
0
  11
2.53292
  21
0.46266
  31
0
  0
LINE
  8
0
  10
2.53292
  20
0.46266
  30
0
  11
2.54077
  21
0.4282
  31
0
  0
LINE
  8
0
  10
2.54077
  20
0.4282
  30
0
  11
2.54406
  21
0.39225
  31
0
  0
LINE
  8
0
  10
2.54406
  20
0.39225
  30
0
  11
2.54441
  21
0.3554
  31
0
  0
LINE
  8
0
  10
2.54441
  20
0.3554
  30
0
  11
2.54229
  21
0.31785
  31
0
  0
LINE
  8
0
  10
2.54229
  20
0.31785
  30
0
  11
2.53796
  21
0.27973
  31
0
  0
LINE
  8
0
  10
2.53796
  20
0.27973
  30
0
  11
2.53157
  21
0.24114
  31
0
  0
LINE
  8
0
  10
2.53157
  20
0.24114
  30
0
  11
2.52321
  21
0.20215
  31
0
  0
LINE
  8
0
  10
2.52321
  20
0.20215
  30
0
  11
2.51295
  21
0.16285
  31
0
  0
LINE
  8
0
  10
2.51295
  20
0.16285
  30
0
  11
2.50084
  21
0.12328
  31
0
  0
LINE
  8
0
  10
2.50084
  20
0.12328
  30
0
  11
2.48693
  21
0.08352
  31
0
  0
LINE
  8
0
  10
2.48693
  20
0.08352
  30
0
  11
2.47532
  21
0.0536
  31
0
  0
LINE
  8
0
  10
2.47532
  20
0.0536
  30
0
  11
2.15533
  21
0.00498
  31
0
  0
LINE
  8
0
  10
2.15533
  20
0.00498
  30
0
  11
2.13536
  21
0.0301
  31
0
  0
LINE
  8
0
  10
2.13536
  20
0.0301
  30
0
  11
2.11026
  21
0.06394
  31
0
  0
LINE
  8
0
  10
2.11026
  20
0.06394
  30
0
  11
2.08695
  21
0.09812
  31
0
  0
LINE
  8
0
  10
2.08695
  20
0.09812
  30
0
  11
2.06548
  21
0.1326
  31
0
  0
LINE
  8
0
  10
2.06548
  20
0.1326
  30
0
  11
2.04592
  21
0.16734
  31
0
  0
LINE
  8
0
  10
2.04592
  20
0.16734
  30
0
  11
2.02835
  21
0.20229
  31
0
  0
LINE
  8
0
  10
2.02835
  20
0.20229
  30
0
  11
2.0129
  21
0.23741
  31
0
  0
LINE
  8
0
  10
2.0129
  20
0.23741
  30
0
  11
1.99972
  21
0.27263
  31
0
  0
LINE
  8
0
  10
1.99972
  20
0.27263
  30
0
  11
1.9891
  21
0.30793
  31
0
  0
LINE
  8
0
  10
1.9891
  20
0.30793
  30
0
  11
1.98157
  21
0.34323
  31
0
  0
LINE
  8
0
  10
1.98157
  20
0.34323
  30
0
  11
1.97883
  21
0.37846
  31
0
  0
LINE
  8
0
  10
1.97883
  20
0.37846
  30
0
  11
1.97602
  21
0.41371
  31
0
  0
LINE
  8
0
  10
1.97602
  20
0.41371
  30
0
  11
1.97297
  21
0.43137
  31
0
  0
LINE
  8
0
  10
1.97297
  20
0.43137
  30
0
  11
1.96856
  21
0.44909
  31
0
  0
LINE
  8
0
  10
1.96856
  20
0.44909
  30
0
  11
1.96243
  21
0.46687
  31
0
  0
LINE
  8
0
  10
1.96243
  20
0.46687
  30
0
  11
1.95396
  21
0.48477
  31
0
  0
LINE
  8
0
  10
1.95396
  20
0.48477
  30
0
  11
1.94849
  21
0.4938
  31
0
  0
LINE
  8
0
  10
1.94849
  20
0.4938
  30
0
  11
1.94183
  21
0.5029
  31
0
  0
LINE
  8
0
  10
1.94183
  20
0.5029
  30
0
  11
1.93337
  21
0.51213
  31
0
  0
LINE
  8
0
  10
1.93337
  20
0.51213
  30
0
  11
1.92159
  21
0.52162
  31
0
  0
LINE
  8
0
  10
1.92159
  20
0.52162
  30
0
  11
1.8907
  21
0.53267
  31
0
  0
LINE
  8
0
  10
1.8907
  20
0.53267
  30
0
  11
1.77207
  21
0.54736
  31
0
  0
LINE
  8
0
  10
1.77207
  20
0.54736
  30
0
  11
1.65501
  21
0.57152
  31
0
  0
LINE
  8
0
  10
1.65501
  20
0.57152
  30
0
  11
1.6222
  21
0.57097
  31
0
  0
LINE
  8
0
  10
1.6222
  20
0.57097
  30
0
  11
1.608
  21
0.56577
  31
0
  0
LINE
  8
0
  10
1.608
  20
0.56577
  30
0
  11
1.59702
  21
0.55974
  31
0
  0
LINE
  8
0
  10
1.59702
  20
0.55974
  30
0
  11
1.58779
  21
0.55325
  31
0
  0
LINE
  8
0
  10
1.58779
  20
0.55325
  30
0
  11
1.57972
  21
0.54646
  31
0
  0
LINE
  8
0
  10
1.57972
  20
0.54646
  30
0
  11
1.56595
  21
0.53222
  31
0
  0
LINE
  8
0
  10
1.56595
  20
0.53222
  30
0
  11
1.55444
  21
0.51735
  31
0
  0
LINE
  8
0
  10
1.55444
  20
0.51735
  30
0
  11
1.54457
  21
0.50199
  31
0
  0
LINE
  8
0
  10
1.54457
  20
0.50199
  30
0
  11
1.53601
  21
0.48623
  31
0
  0
LINE
  8
0
  10
1.53601
  20
0.48623
  30
0
  11
1.52205
  21
0.45376
  31
0
  0
LINE
  8
0
  10
1.52205
  20
0.45376
  30
0
  11
1.50814
  21
0.42126
  31
0
  0
LINE
  8
0
  10
1.50814
  20
0.42126
  30
0
  11
1.48968
  21
0.39025
  31
0
  0
LINE
  8
0
  10
1.48968
  20
0.39025
  30
0
  11
1.46829
  21
0.36023
  31
0
  0
LINE
  8
0
  10
1.46829
  20
0.36023
  30
0
  11
1.44451
  21
0.33109
  31
0
  0
LINE
  8
0
  10
1.44451
  20
0.33109
  30
0
  11
1.4186
  21
0.3028
  31
0
  0
LINE
  8
0
  10
1.4186
  20
0.3028
  30
0
  11
1.39074
  21
0.27534
  31
0
  0
LINE
  8
0
  10
1.39074
  20
0.27534
  30
0
  11
1.36107
  21
0.24871
  31
0
  0
LINE
  8
0
  10
1.36107
  20
0.24871
  30
0
  11
1.32967
  21
0.22294
  31
0
  0
LINE
  8
0
  10
1.32967
  20
0.22294
  30
0
  11
1.29662
  21
0.19805
  31
0
  0
LINE
  8
0
  10
1.29662
  20
0.19805
  30
0
  11
1.26199
  21
0.17406
  31
0
  0
LINE
  8
0
  10
1.26199
  20
0.17406
  30
0
  11
1.23501
  21
0.15668
  31
0
  0
LINE
  8
0
  10
1.23501
  20
0.15668
  30
0
  11
0.94755
  21
0.30543
  31
0
  0
LINE
  8
0
  10
0.94755
  20
0.30543
  30
0
  11
0.94616
  21
0.33749
  31
0
  0
LINE
  8
0
  10
0.94616
  20
0.33749
  30
0
  11
0.94575
  21
0.37961
  31
0
  0
LINE
  8
0
  10
0.94575
  20
0.37961
  30
0
  11
0.94698
  21
0.42097
  31
0
  0
LINE
  8
0
  10
0.94698
  20
0.42097
  30
0
  11
0.94988
  21
0.46149
  31
0
  0
LINE
  8
0
  10
0.94988
  20
0.46149
  30
0
  11
0.95447
  21
0.50109
  31
0
  0
LINE
  8
0
  10
0.95447
  20
0.50109
  30
0
  11
0.9608
  21
0.53969
  31
0
  0
LINE
  8
0
  10
0.9608
  20
0.53969
  30
0
  11
0.96894
  21
0.57719
  31
0
  0
LINE
  8
0
  10
0.96894
  20
0.57719
  30
0
  11
0.97898
  21
0.61343
  31
0
  0
LINE
  8
0
  10
0.97898
  20
0.61343
  30
0
  11
0.99114
  21
0.64822
  31
0
  0
LINE
  8
0
  10
0.99114
  20
0.64822
  30
0
  11
1.00579
  21
0.68121
  31
0
  0
LINE
  8
0
  10
1.00579
  20
0.68121
  30
0
  11
1.02429
  21
0.71133
  31
0
  0
LINE
  8
0
  10
1.02429
  20
0.71133
  30
0
  11
1.04273
  21
0.74149
  31
0
  0
LINE
  8
0
  10
1.04273
  20
0.74149
  30
0
  11
1.05065
  21
0.75757
  31
0
  0
LINE
  8
0
  10
1.05065
  20
0.75757
  30
0
  11
1.05749
  21
0.7745
  31
0
  0
LINE
  8
0
  10
1.05749
  20
0.7745
  30
0
  11
1.06298
  21
0.79249
  31
0
  0
LINE
  8
0
  10
1.06298
  20
0.79249
  30
0
  11
1.06665
  21
0.81195
  31
0
  0
LINE
  8
0
  10
1.06665
  20
0.81195
  30
0
  11
1.06754
  21
0.82247
  31
0
  0
LINE
  8
0
  10
1.06754
  20
0.82247
  30
0
  11
1.0675
  21
0.83375
  31
0
  0
LINE
  8
0
  10
1.0675
  20
0.83375
  30
0
  11
1.06608
  21
0.84619
  31
0
  0
LINE
  8
0
  10
1.06608
  20
0.84619
  30
0
  11
1.06213
  21
0.86079
  31
0
  0
LINE
  8
0
  10
1.06213
  20
0.86079
  30
0
  11
1.04363
  21
0.88789
  31
0
  0
LINE
  8
0
  10
1.04363
  20
0.88789
  30
0
  11
0.95629
  21
0.96949
  31
0
  0
LINE
  8
0
  10
0.95629
  20
0.96949
  30
0
  11
0.87579
  21
1.05785
  31
0
  0
LINE
  8
0
  10
0.87579
  20
1.05785
  30
0
  11
0.84892
  21
1.07669
  31
0
  0
LINE
  8
0
  10
0.84892
  20
1.07669
  30
0
  11
0.83437
  21
1.08083
  31
0
  0
LINE
  8
0
  10
0.83437
  20
1.08083
  30
0
  11
0.82195
  21
1.0824
  31
0
  0
LINE
  8
0
  10
0.82195
  20
1.0824
  30
0
  11
0.81067
  21
1.08258
  31
0
  0
LINE
  8
0
  10
0.81067
  20
1.08258
  30
0
  11
0.80015
  21
1.08183
  31
0
  0
LINE
  8
0
  10
0.80015
  20
1.08183
  30
0
  11
0.78064
  21
1.0784
  31
0
  0
LINE
  8
0
  10
0.78064
  20
1.0784
  30
0
  11
0.76258
  21
1.07314
  31
0
  0
LINE
  8
0
  10
0.76258
  20
1.07314
  30
0
  11
0.74557
  21
1.06651
  31
0
  0
LINE
  8
0
  10
0.74557
  20
1.06651
  30
0
  11
0.72939
  21
1.0588
  31
0
  0
LINE
  8
0
  10
0.72939
  20
1.0588
  30
0
  11
0.699
  21
1.04073
  31
0
  0
LINE
  8
0
  10
0.699
  20
1.04073
  30
0
  11
0.66865
  21
1.02262
  31
0
  0
LINE
  8
0
  10
0.66865
  20
1.02262
  30
0
  11
0.63548
  21
1.00838
  31
0
  0
LINE
  8
0
  10
0.63548
  20
1.00838
  30
0
  11
0.60054
  21
0.99666
  31
0
  0
LINE
  8
0
  10
0.60054
  20
0.99666
  30
0
  11
0.56417
  21
0.98707
  31
0
  0
LINE
  8
0
  10
0.56417
  20
0.98707
  30
0
  11
0.52658
  21
0.97941
  31
0
  0
LINE
  8
0
  10
0.52658
  20
0.97941
  30
0
  11
0.4879
  21
0.97356
  31
0
  0
LINE
  8
0
  10
0.4879
  20
0.97356
  30
0
  11
0.44824
  21
0.96947
  31
0
  0
LINE
  8
0
  10
0.44824
  20
0.96947
  30
0
  11
0.40769
  21
0.96708
  31
0
  0
LINE
  8
0
  10
0.40769
  20
0.96708
  30
0
  11
0.36632
  21
0.96636
  31
0
  0
LINE
  8
0
  10
0.36632
  20
0.96636
  30
0
  11
0.3242
  21
0.96731
  31
0
  0
LINE
  8
0
  10
0.3242
  20
0.96731
  30
0
  11
0.29217
  21
0.9691
  31
0
  0
LINE
  8
0
  10
0.29217
  20
0.9691
  30
0
  11
0.14704
  21
1.25841
  31
0
  0
LINE
  8
0
  10
0.14704
  20
1.25841
  30
0
  11
0.16476
  21
1.28516
  31
0
  0
LINE
  8
0
  10
0.16476
  20
1.28516
  30
0
  11
0.18918
  21
1.31949
  31
0
  0
LINE
  8
0
  10
0.18918
  20
1.31949
  30
0
  11
0.21449
  21
1.35222
  31
0
  0
LINE
  8
0
  10
0.21449
  20
1.35222
  30
0
  11
0.24065
  21
1.3833
  31
0
  0
LINE
  8
0
  10
0.24065
  20
1.3833
  30
0
  11
0.26764
  21
1.41264
  31
0
  0
LINE
  8
0
  10
0.26764
  20
1.41264
  30
0
  11
0.29546
  21
1.44015
  31
0
  0
LINE
  8
0
  10
0.29546
  20
1.44015
  30
0
  11
0.32407
  21
1.4657
  31
0
  0
LINE
  8
0
  10
0.32407
  20
1.4657
  30
0
  11
0.35351
  21
1.48911
  31
0
  0
LINE
  8
0
  10
0.35351
  20
1.48911
  30
0
  11
0.38379
  21
1.51012
  31
0
  0
LINE
  8
0
  10
0.38379
  20
1.51012
  30
0
  11
0.41504
  21
1.52819
  31
0
  0
LINE
  8
0
  10
0.41504
  20
1.52819
  30
0
  11
0.4477
  21
1.54169
  31
0
  0
LINE
  8
0
  10
0.4477
  20
1.54169
  30
0
  11
0.48035
  21
1.55525
  31
0
  0
LINE
  8
0
  10
0.48035
  20
1.55525
  30
0
  11
0.49621
  21
1.5636
  31
0
  0
LINE
  8
0
  10
0.49621
  20
1.5636
  30
0
  11
0.51169
  21
1.57328
  31
0
  0
LINE
  8
0
  10
0.51169
  20
1.57328
  30
0
  11
0.52671
  21
1.58461
  31
0
  0
LINE
  8
0
  10
0.52671
  20
1.58461
  30
0
  11
0.54112
  21
1.59819
  31
0
  0
LINE
  8
0
  10
0.54112
  20
1.59819
  30
0
  11
0.54801
  21
1.60618
  31
0
  0
LINE
  8
0
  10
0.54801
  20
1.60618
  30
0
  11
0.55461
  21
1.61533
  31
0
  0
LINE
  8
0
  10
0.55461
  20
1.61533
  30
0
  11
0.56078
  21
1.62623
  31
0
  0
LINE
  8
0
  10
0.56078
  20
1.62623
  30
0
  11
0.56616
  21
1.64036
  31
0
  0
LINE
  8
0
  10
0.56616
  20
1.64036
  30
0
  11
0.56713
  21
1.67316
  31
0
  0
LINE
  8
0
  10
0.56713
  20
1.67316
  30
0
  11
0.54443
  21
1.79052
  31
0
  0
LINE
  8
0
  10
0.54443
  20
1.79052
  30
0
  11
0.53124
  21
1.90932
  31
0
  0
LINE
  8
0
  10
0.53124
  20
1.90932
  30
0
  11
0.52058
  21
1.94035
  31
0
  0
LINE
  8
0
  10
0.52058
  20
1.94035
  30
0
  11
0.51124
  21
1.95225
  31
0
  0
LINE
  8
0
  10
0.51124
  20
1.95225
  30
0
  11
0.50212
  21
1.96082
  31
0
  0
LINE
  8
0
  10
0.50212
  20
1.96082
  30
0
  11
0.4931
  21
1.9676
  31
0
  0
LINE
  8
0
  10
0.4931
  20
1.9676
  30
0
  11
0.48414
  21
1.97318
  31
0
  0
LINE
  8
0
  10
0.48414
  20
1.97318
  30
0
  11
0.46635
  21
1.98187
  31
0
  0
LINE
  8
0
  10
0.46635
  20
1.98187
  30
0
  11
0.44864
  21
1.98823
  31
0
  0
LINE
  8
0
  10
0.44864
  20
1.98823
  30
0
  11
0.43099
  21
1.99286
  31
0
  0
LINE
  8
0
  10
0.43099
  20
1.99286
  30
0
  11
0.41336
  21
1.99613
  31
0
  0
LINE
  8
0
  10
0.41336
  20
1.99613
  30
0
  11
0.37815
  21
1.99938
  31
0
  0
LINE
  8
0
  10
0.37815
  20
1.99938
  30
0
  11
0.34296
  21
2.00256
  31
0
  0
LINE
  8
0
  10
0.34296
  20
2.00256
  30
0
  11
0.30775
  21
2.01054
  31
0
  0
LINE
  8
0
  10
0.30775
  20
2.01054
  30
0
  11
0.27259
  21
2.0216
  31
0
  0
LINE
  8
0
  10
0.27259
  20
2.0216
  30
0
  11
0.23753
  21
2.03522
  31
0
  0
LINE
  8
0
  10
0.23753
  20
2.03522
  30
0
  11
0.20262
  21
2.05111
  31
0
  0
LINE
  8
0
  10
0.20262
  20
2.05111
  30
0
  11
0.16789
  21
2.06912
  31
0
  0
LINE
  8
0
  10
0.16789
  20
2.06912
  30
0
  11
0.1334
  21
2.08912
  31
0
  0
LINE
  8
0
  10
0.1334
  20
2.08912
  30
0
  11
0.09919
  21
2.11102
  31
0
  0
LINE
  8
0
  10
0.09919
  20
2.11102
  30
0
  11
0.0653
  21
2.13476
  31
0
  0
LINE
  8
0
  10
0.0653
  20
2.13476
  30
0
  11
0.03179
  21
2.16028
  31
0
  0
LINE
  8
0
  10
0.03179
  20
2.16028
  30
0
  11
0.00692
  21
2.18056
  31
0
  0
LINE
  8
0
  10
0.00692
  20
2.18056
  30
0
  11
0.05956
  21
2.49992
  31
0
  0
LINE
  8
0
  10
0.05956
  20
2.49992
  30
0
  11
0.08962
  21
2.51115
  31
0
  0
LINE
  8
0
  10
0.08962
  20
2.51115
  30
0
  11
0.12955
  21
2.52456
  31
0
  0
LINE
  8
0
  10
0.12955
  20
2.52456
  30
0
  11
0.16927
  21
2.53617
  31
0
  0
LINE
  8
0
  10
0.16927
  20
2.53617
  30
0
  11
0.2087
  21
2.54593
  31
0
  0
LINE
  8
0
  10
0.2087
  20
2.54593
  30
0
  11
0.24778
  21
2.5538
  31
0
  0
LINE
  8
0
  10
0.24778
  20
2.5538
  30
0
  11
0.28645
  21
2.55971
  31
0
  0
LINE
  8
0
  10
0.28645
  20
2.55971
  30
0
  11
0.32462
  21
2.56356
  31
0
  0
LINE
  8
0
  10
0.32462
  20
2.56356
  30
0
  11
0.3622
  21
2.5652
  31
0
  0
LINE
  8
0
  10
0.3622
  20
2.5652
  30
0
  11
0.39904
  21
2.5644
  31
0
  0
LINE
  8
0
  10
0.39904
  20
2.5644
  30
0
  11
0.43495
  21
2.56065
  31
0
  0
LINE
  8
0
  10
0.43495
  20
2.56065
  30
0
  11
0.4693
  21
2.55237
  31
0
  0
LINE
  8
0
  10
0.4693
  20
2.55237
  30
0
  11
0.50369
  21
2.54415
  31
0
  0
LINE
  8
0
  10
0.50369
  20
2.54415
  30
0
  11
0.52143
  21
2.54159
  31
0
  0
LINE
  8
0
  10
0.52143
  20
2.54159
  30
0
  11
0.53964
  21
2.54031
  31
0
  0
LINE
  8
0
  10
0.53964
  20
2.54031
  30
0
  11
0.55845
  21
2.54065
  31
0
  0
LINE
  8
0
  10
0.55845
  20
2.54065
  30
0
  11
0.5781
  21
2.54317
  31
0
  0
LINE
  8
0
  10
0.5781
  20
2.54317
  30
0
  11
0.58837
  21
2.54558
  31
0
  0
LINE
  8
0
  10
0.58837
  20
2.54558
  30
0
  11
0.59909
  21
2.54911
  31
0
  0
LINE
  8
0
  10
0.59909
  20
2.54911
  30
0
  11
0.61048
  21
2.5543
  31
0
  0
LINE
  8
0
  10
0.61048
  20
2.5543
  30
0
  11
0.62314
  21
2.56257
  31
0
  0
LINE
  8
0
  10
0.62314
  20
2.56257
  30
0
  11
0.6432
  21
2.58853
  31
0
  0
LINE
  8
0
  10
0.6432
  20
2.58853
  30
0
  11
0.69382
  21
2.69682
  31
0
  0
LINE
  8
0
  10
0.69382
  20
2.69682
  30
0
  11
0.75298
  21
2.80069
  31
0
  0
LINE
  8
0
  10
0.75298
  20
2.80069
  30
0
  11
0.76259
  21
2.83206
  31
0
  0
LINE
  8
0
  10
0.76259
  20
2.83206
  30
0
  11
0.76203
  21
2.84717
  31
0
  0
LINE
  8
0
  10
0.76203
  20
2.84717
  30
0
  11
0.75969
  21
2.85947
  31
0
  0
LINE
  8
0
  10
0.75969
  20
2.85947
  30
0
  11
0.75637
  21
2.87025
  31
0
  0
LINE
  8
0
  10
0.75637
  20
2.87025
  30
0
  11
0.75241
  21
2.88003
  31
0
  0
LINE
  8
0
  10
0.75241
  20
2.88003
  30
0
  11
0.74312
  21
2.89752
  31
0
  0
LINE
  8
0
  10
0.74312
  20
2.89752
  30
0
  11
0.73253
  21
2.91307
  31
0
  0
LINE
  8
0
  10
0.73253
  20
2.91307
  30
0
  11
0.72098
  21
2.9272
  31
0
  0
LINE
  8
0
  10
0.72098
  20
2.9272
  30
0
  11
0.70864
  21
2.94021
  31
0
  0
LINE
  8
0
  10
0.70864
  20
2.94021
  30
0
  11
0.68206
  21
2.96353
  31
0
  0
LINE
  8
0
  10
0.68206
  20
2.96353
  30
0
  11
0.65546
  21
2.98679
  31
0
  0
LINE
  8
0
  10
0.65546
  20
2.98679
  30
0
  11
0.63167
  21
3.01394
  31
0
  0
LINE
  8
0
  10
0.63167
  20
3.01394
  30
0
  11
0.60973
  21
3.04355
  31
0
  0
LINE
  8
0
  10
0.60973
  20
3.04355
  30
0
  11
0.58937
  21
3.07518
  31
0
  0
LINE
  8
0
  10
0.58937
  20
3.07518
  30
0
  11
0.57046
  21
3.10856
  31
0
  0
LINE
  8
0
  10
0.57046
  20
3.10856
  30
0
  11
0.55295
  21
3.14354
  31
0
  0
LINE
  8
0
  10
0.55295
  20
3.14354
  30
0
  11
0.5368
  21
3.17999
  31
0
  0
LINE
  8
0
  10
0.5368
  20
3.17999
  30
0
  11
0.522
  21
3.21782
  31
0
  0
LINE
  8
0
  10
0.522
  20
3.21782
  30
0
  11
0.50854
  21
3.25694
  31
0
  0
LINE
  8
0
  10
0.50854
  20
3.25694
  30
0
  11
0.49642
  21
3.29729
  31
0
  0
LINE
  8
0
  10
0.49642
  20
3.29729
  30
0
  11
0.48823
  21
3.32832
  31
0
  0
LINE
  8
0
  10
0.48823
  20
3.32832
  30
0
  11
0.71852
  21
3.55574
  31
0
  0
LINE
  8
0
  10
0.71852
  20
3.55574
  30
0
  11
0.74945
  21
3.54716
  31
0
  0
LINE
  8
0
  10
0.74945
  20
3.54716
  30
0
  11
0.78964
  21
3.53454
  31
0
  0
LINE
  8
0
  10
0.78964
  20
3.53454
  30
0
  11
0.82859
  21
3.52058
  31
0
  0
LINE
  8
0
  10
0.82859
  20
3.52058
  30
0
  11
0.86623
  21
3.5053
  31
0
  0
LINE
  8
0
  10
0.86623
  20
3.5053
  30
0
  11
0.90247
  21
3.4887
  31
0
  0
LINE
  8
0
  10
0.90247
  20
3.4887
  30
0
  11
0.93723
  21
3.47075
  31
0
  0
LINE
  8
0
  10
0.93723
  20
3.47075
  30
0
  11
0.97037
  21
3.45143
  31
0
  0
LINE
  8
0
  10
0.97037
  20
3.45143
  30
0
  11
1.00174
  21
3.43067
  31
0
  0
LINE
  8
0
  10
1.00174
  20
3.43067
  30
0
  11
1.03108
  21
3.40836
  31
0
  0
LINE
  8
0
  10
1.03108
  20
3.40836
  30
0
  11
1.05792
  21
3.38423
  31
0
  0
LINE
  8
0
  10
1.05792
  20
3.38423
  30
0
  11
1.08085
  21
3.35733
  31
0
  0
LINE
  8
0
  10
1.08085
  20
3.35733
  30
0
  11
1.10383
  21
3.33047
  31
0
  0
LINE
  8
0
  10
1.10383
  20
3.33047
  30
0
  11
1.11668
  21
3.31797
  31
0
  0
LINE
  8
0
  10
1.11668
  20
3.31797
  30
0
  11
1.13066
  21
3.30623
  31
0
  0
LINE
  8
0
  10
1.13066
  20
3.30623
  30
0
  11
1.14608
  21
3.29545
  31
0
  0
LINE
  8
0
  10
1.14608
  20
3.29545
  30
0
  11
1.16345
  21
3.28594
  31
0
  0
LINE
  8
0
  10
1.16345
  20
3.28594
  30
0
  11
1.17318
  21
3.28186
  31
0
  0
LINE
  8
0
  10
1.17318
  20
3.28186
  30
0
  11
1.18392
  21
3.27841
  31
0
  0
LINE
  8
0
  10
1.18392
  20
3.27841
  30
0
  11
1.19619
  21
3.27591
  31
0
  0
LINE
  8
0
  10
1.19619
  20
3.27591
  30
0
  11
1.2113
  21
3.27516
  31
0
  0
LINE
  8
0
  10
1.2113
  20
3.27516
  30
0
  11
1.24279
  21
3.28438
  31
0
  0
LINE
  8
0
  10
1.24279
  20
3.28438
  30
0
  11
1.34739
  21
3.34223
  31
0
  0
LINE
  8
0
  10
1.34739
  20
3.34223
  30
0
  11
1.4563
  21
3.39148
  31
0
  0
LINE
  8
0
  10
1.4563
  20
3.39148
  30
0
  11
1.48252
  21
3.41121
  31
0
  0
LINE
  8
0
  10
1.48252
  20
3.41121
  30
0
  11
1.49095
  21
3.42377
  31
0
  0
LINE
  8
0
  10
1.49095
  20
3.42377
  30
0
  11
1.49628
  21
3.4351
  31
0
  0
LINE
  8
0
  10
1.49628
  20
3.4351
  30
0
  11
1.49994
  21
3.44577
  31
0
  0
LINE
  8
0
  10
1.49994
  20
3.44577
  30
0
  11
1.50248
  21
3.45601
  31
0
  0
LINE
  8
0
  10
1.50248
  20
3.45601
  30
0
  11
1.50525
  21
3.47562
  31
0
  0
LINE
  8
0
  10
1.50525
  20
3.47562
  30
0
  11
1.50582
  21
3.49442
  31
0
  0
LINE
  8
0
  10
1.50582
  20
3.49442
  30
0
  11
1.50477
  21
3.51265
  31
0
  0
LINE
  8
0
  10
1.50477
  20
3.51265
  30
0
  11
1.50244
  21
3.53042
  31
0
  0
LINE
  8
0
  10
1.50244
  20
3.53042
  30
0
  11
1.49465
  21
3.56491
  31
0
  0
LINE
  8
0
  10
1.49465
  20
3.56491
  30
0
  11
1.4868
  21
3.59937
  31
0
  0
LINE
  8
0
  10
1.4868
  20
3.59937
  30
0
  11
1.4835
  21
3.63531
  31
0
  0
LINE
  8
0
  10
1.4835
  20
3.63531
  30
0
  11
1.48316
  21
3.67217
  31
0
  0
LINE
  8
0
  10
1.48316
  20
3.67217
  30
0
  11
1.48528
  21
3.70972
  31
0
  0
LINE
  8
0
  10
1.48528
  20
3.70972
  30
0
  11
1.48961
  21
3.74784
  31
0
  0
LINE
  8
0
  10
1.48961
  20
3.74784
  30
0
  11
1.496
  21
3.78643
  31
0
  0
LINE
  8
0
  10
1.496
  20
3.78643
  30
0
  11
1.50436
  21
3.82541
  31
0
  0
LINE
  8
0
  10
1.50436
  20
3.82541
  30
0
  11
1.51462
  21
3.86472
  31
0
  0
LINE
  8
0
  10
1.51462
  20
3.86472
  30
0
  11
1.52672
  21
3.90428
  31
0
  0
LINE
  8
0
  10
1.52672
  20
3.90428
  30
0
  11
1.54064
  21
3.94405
  31
0
  0
LINE
  8
0
  10
1.54064
  20
3.94405
  30
0
  11
1.55224
  21
3.97396
  31
0
  0
LINE
  8
0
  10
1.55224
  20
3.97396
  30
0
  11
1.87224
  21
4.02259
  31
0
  0
LINE
  8
0
  10
1.87224
  20
4.02259
  30
0
  11
1.89221
  21
3.99747
  31
0
  0
LINE
  8
0
  10
1.89221
  20
3.99747
  30
0
  11
1.9173
  21
3.96363
  31
0
  0
LINE
  8
0
  10
1.9173
  20
3.96363
  30
0
  11
1.94062
  21
3.92945
  31
0
  0
LINE
  8
0
  10
1.94062
  20
3.92945
  30
0
  11
1.96209
  21
3.89497
  31
0
  0
LINE
  8
0
  10
1.96209
  20
3.89497
  30
0
  11
1.98165
  21
3.86022
  31
0
  0
LINE
  8
0
  10
1.98165
  20
3.86022
  30
0
  11
1.99922
  21
3.82527
  31
0
  0
LINE
  8
0
  10
1.99922
  20
3.82527
  30
0
  11
2.01467
  21
3.79016
  31
0
  0
LINE
  8
0
  10
2.01467
  20
3.79016
  30
0
  11
2.02785
  21
3.75493
  31
0
  0
LINE
  8
0
  10
2.02785
  20
3.75493
  30
0
  11
2.03847
  21
3.71964
  31
0
  0
LINE
  8
0
  10
2.03847
  20
3.71964
  30
0
  11
2.046
  21
3.68434
  31
0
  0
LINE
  8
0
  10
2.046
  20
3.68434
  30
0
  11
2.04874
  21
3.6491
  31
0
  0
LINE
  8
0
  10
2.04874
  20
3.6491
  30
0
  11
2.05155
  21
3.61386
  31
0
  0
LINE
  8
0
  10
2.05155
  20
3.61386
  30
0
  11
2.05459
  21
3.59619
  31
0
  0
LINE
  8
0
  10
2.05459
  20
3.59619
  30
0
  11
2.05901
  21
3.57848
  31
0
  0
LINE
  8
0
  10
2.05901
  20
3.57848
  30
0
  11
2.06514
  21
3.5607
  31
0
  0
LINE
  8
0
  10
2.06514
  20
3.5607
  30
0
  11
2.07361
  21
3.54279
  31
0
  0
LINE
  8
0
  10
2.07361
  20
3.54279
  30
0
  11
2.07908
  21
3.53377
  31
0
  0
LINE
  8
0
  10
2.07908
  20
3.53377
  30
0
  11
2.08574
  21
3.52467
  31
0
  0
LINE
  8
0
  10
2.08574
  20
3.52467
  30
0
  11
2.0942
  21
3.51543
  31
0
  0
LINE
  8
0
  10
2.0942
  20
3.51543
  30
0
  11
2.10598
  21
3.50595
  31
0
  0
LINE
  8
0
  10
2.10598
  20
3.50595
  30
0
  11
2.13687
  21
3.49489
  31
0
  0
LINE
  8
0
  10
2.13687
  20
3.49489
  30
0
  11
2.2555
  21
3.48021
  31
0
  0
LINE
  8
0
  10
2.2555
  20
3.48021
  30
0
  11
2.37256
  21
3.45604
  31
0
  0
LINE
  8
0
  10
2.37256
  20
3.45604
  30
0
  11
2.40537
  21
3.4566
  31
0
  0
LINE
  8
0
  10
2.40537
  20
3.4566
  30
0
  11
2.41957
  21
3.4618
  31
0
  0
LINE
  8
0
  10
2.41957
  20
3.4618
  30
0
  11
2.43054
  21
3.46783
  31
0
  0
LINE
  8
0
  10
2.43054
  20
3.46783
  30
0
  11
2.43977
  21
3.47432
  31
0
  0
LINE
  8
0
  10
2.43977
  20
3.47432
  30
0
  11
2.44785
  21
3.48111
  31
0
  0
LINE
  8
0
  10
2.44785
  20
3.48111
  30
0
  11
2.46162
  21
3.49535
  31
0
  0
LINE
  8
0
  10
2.46162
  20
3.49535
  30
0
  11
2.47313
  21
3.51022
  31
0
  0
LINE
  8
0
  10
2.47313
  20
3.51022
  30
0
  11
2.483
  21
3.52558
  31
0
  0
LINE
  8
0
  10
2.483
  20
3.52558
  30
0
  11
2.49155
  21
3.54133
  31
0
  0
LINE
  8
0
  10
2.49155
  20
3.54133
  30
0
  11
2.50552
  21
3.57381
  31
0
  0
LINE
  8
0
  10
2.50552
  20
3.57381
  30
0
  11
2.51942
  21
3.6063
  31
0
  0
LINE
  8
0
  10
2.51942
  20
3.6063
  30
0
  11
2.53789
  21
3.63732
  31
0
  0
LINE
  8
0
  10
2.53789
  20
3.63732
  30
0
  11
2.55928
  21
3.66734
  31
0
  0
LINE
  8
0
  10
2.55928
  20
3.66734
  30
0
  11
2.58306
  21
3.69647
  31
0
  0
LINE
  8
0
  10
2.58306
  20
3.69647
  30
0
  11
2.60897
  21
3.72477
  31
0
  0
LINE
  8
0
  10
2.60897
  20
3.72477
  30
0
  11
2.63682
  21
3.75223
  31
0
  0
LINE
  8
0
  10
2.63682
  20
3.75223
  30
0
  11
2.6665
  21
3.77886
  31
0
  0
LINE
  8
0
  10
2.6665
  20
3.77886
  30
0
  11
2.6979
  21
3.80463
  31
0
  0
LINE
  8
0
  10
2.6979
  20
3.80463
  30
0
  11
2.73095
  21
3.82952
  31
0
  0
LINE
  8
0
  10
2.73095
  20
3.82952
  30
0
  11
2.76558
  21
3.85351
  31
0
  0
LINE
  8
0
  10
2.76558
  20
3.85351
  30
0
  11
2.79256
  21
3.87089
  31
0
  0
LINE
  8
0
  10
2.79256
  20
3.87089
  30
0
  11
3.08001
  21
3.72214
  31
0
  0
LINE
  8
0
  10
3.08001
  20
3.72214
  30
0
  11
3.0814
  21
3.69008
  31
0
  0
LINE
  8
0
  10
3.0814
  20
3.69008
  30
0
  11
3.08182
  21
3.64795
  31
0
  0
LINE
  8
0
  10
3.08182
  20
3.64795
  30
0
  11
3.08059
  21
3.6066
  31
0
  0
LINE
  8
0
  10
3.08059
  20
3.6066
  30
0
  11
3.07769
  21
3.56608
  31
0
  0
LINE
  8
0
  10
3.07769
  20
3.56608
  30
0
  11
3.0731
  21
3.52647
  31
0
  0
LINE
  8
0
  10
3.0731
  20
3.52647
  30
0
  11
3.06677
  21
3.48787
  31
0
  0
LINE
  8
0
  10
3.06677
  20
3.48787
  30
0
  11
3.05863
  21
3.45038
  31
0
  0
LINE
  8
0
  10
3.05863
  20
3.45038
  30
0
  11
3.04858
  21
3.41414
  31
0
  0
LINE
  8
0
  10
3.04858
  20
3.41414
  30
0
  11
3.03643
  21
3.37934
  31
0
  0
LINE
  8
0
  10
3.03643
  20
3.37934
  30
0
  11
3.02178
  21
3.34635
  31
0
  0
LINE
  8
0
  10
3.02178
  20
3.34635
  30
0
  11
3.00328
  21
3.31624
  31
0
  0
LINE
  8
0
  10
3.00328
  20
3.31624
  30
0
  11
2.98484
  21
3.28608
  31
0
  0
LINE
  8
0
  10
2.98484
  20
3.28608
  30
0
  11
2.97692
  21
3.26999
  31
0
  0
LINE
  8
0
  10
2.97692
  20
3.26999
  30
0
  11
2.97008
  21
3.25307
  31
0
  0
LINE
  8
0
  10
2.97008
  20
3.25307
  30
0
  11
2.96459
  21
3.23508
  31
0
  0
LINE
  8
0
  10
2.96459
  20
3.23508
  30
0
  11
2.96091
  21
3.21561
  31
0
  0
LINE
  8
0
  10
2.96091
  20
3.21561
  30
0
  11
2.96003
  21
3.2051
  31
0
  0
LINE
  8
0
  10
2.96003
  20
3.2051
  30
0
  11
2.96007
  21
3.19382
  31
0
  0
LINE
  8
0
  10
2.96007
  20
3.19382
  30
0
  11
2.96149
  21
3.18138
  31
0
  0
LINE
  8
0
  10
2.96149
  20
3.18138
  30
0
  11
2.96544
  21
3.16678
  31
0
  0
LINE
  8
0
  10
2.96544
  20
3.16678
  30
0
  11
2.98394
  21
3.13968
  31
0
  0
LINE
  8
0
  10
2.98394
  20
3.13968
  30
0
  11
3.07128
  21
3.05807
  31
0
  0
LINE
  8
0
  10
3.07128
  20
3.05807
  30
0
  11
3.15178
  21
2.96971
  31
0
  0
LINE
  8
0
  10
3.15178
  20
2.96971
  30
0
  11
3.17865
  21
2.95088
  31
0
  0
LINE
  8
0
  10
3.17865
  20
2.95088
  30
0
  11
3.1932
  21
2.94674
  31
0
  0
LINE
  8
0
  10
3.1932
  20
2.94674
  30
0
  11
3.20562
  21
2.94517
  31
0
  0
LINE
  8
0
  10
3.20562
  20
2.94517
  30
0
  11
3.2169
  21
2.94499
  31
0
  0
LINE
  8
0
  10
3.2169
  20
2.94499
  30
0
  11
3.22742
  21
2.94574
  31
0
  0
LINE
  8
0
  10
3.22742
  20
2.94574
  30
0
  11
3.24693
  21
2.94916
  31
0
  0
LINE
  8
0
  10
3.24693
  20
2.94916
  30
0
  11
3.26499
  21
2.95443
  31
0
  0
LINE
  8
0
  10
3.26499
  20
2.95443
  30
0
  11
3.282
  21
2.96106
  31
0
  0
LINE
  8
0
  10
3.282
  20
2.96106
  30
0
  11
3.29818
  21
2.96877
  31
0
  0
LINE
  8
0
  10
3.29818
  20
2.96877
  30
0
  11
3.32857
  21
2.98684
  31
0
  0
LINE
  8
0
  10
3.32857
  20
2.98684
  30
0
  11
3.35891
  21
3.00495
  31
0
  0
LINE
  8
0
  10
3.35891
  20
3.00495
  30
0
  11
3.39209
  21
3.01919
  31
0
  0
LINE
  8
0
  10
3.39209
  20
3.01919
  30
0
  11
3.42703
  21
3.0309
  31
0
  0
LINE
  8
0
  10
3.42703
  20
3.0309
  30
0
  11
3.4634
  21
3.0405
  31
0
  0
LINE
  8
0
  10
3.4634
  20
3.0405
  30
0
  11
3.50099
  21
3.04816
  31
0
  0
LINE
  8
0
  10
3.50099
  20
3.04816
  30
0
  11
3.53967
  21
3.054
  31
0
  0
LINE
  8
0
  10
3.53967
  20
3.054
  30
0
  11
3.57933
  21
3.0581
  31
0
  0
LINE
  8
0
  10
3.57933
  20
3.0581
  30
0
  11
3.61988
  21
3.06049
  31
0
  0
LINE
  8
0
  10
3.61988
  20
3.06049
  30
0
  11
3.66125
  21
3.0612
  31
0
  0
LINE
  8
0
  10
3.66125
  20
3.0612
  30
0
  11
3.70336
  21
3.06026
  31
0
  0
LINE
  8
0
  10
3.70336
  20
3.06026
  30
0
  11
3.7354
  21
3.05846
  31
0
  0
LINE
  8
0
  10
3.7354
  20
3.05846
  30
0
  11
3.88053
  21
2.76916
  31
0
  0
LINE
  8
0
  10
3.88053
  20
2.76916
  30
0
  11
3.86281
  21
2.7424
  31
0
  0
LINE
  8
0
  10
3.86281
  20
2.7424
  30
0
  11
3.83839
  21
2.70808
  31
0
  0
LINE
  8
0
  10
3.83839
  20
2.70808
  30
0
  11
3.81308
  21
2.67534
  31
0
  0
LINE
  8
0
  10
3.81308
  20
2.67534
  30
0
  11
3.78692
  21
2.64427
  31
0
  0
LINE
  8
0
  10
3.78692
  20
2.64427
  30
0
  11
3.75992
  21
2.61493
  31
0
  0
LINE
  8
0
  10
3.75992
  20
2.61493
  30
0
  11
3.73211
  21
2.58742
  31
0
  0
LINE
  8
0
  10
3.73211
  20
2.58742
  30
0
  11
3.70349
  21
2.56187
  31
0
  0
LINE
  8
0
  10
3.70349
  20
2.56187
  30
0
  11
3.67406
  21
2.53845
  31
0
  0
LINE
  8
0
  10
3.67406
  20
2.53845
  30
0
  11
3.64378
  21
2.51745
  31
0
  0
LINE
  8
0
  10
3.64378
  20
2.51745
  30
0
  11
3.61253
  21
2.49937
  31
0
  0
LINE
  8
0
  10
3.61253
  20
2.49937
  30
0
  11
3.57987
  21
2.48588
  31
0
  0
LINE
  8
0
  10
3.57987
  20
2.48588
  30
0
  11
3.54722
  21
2.47232
  31
0
  0
LINE
  8
0
  10
3.54722
  20
2.47232
  30
0
  11
3.53136
  21
2.46396
  31
0
  0
LINE
  8
0
  10
3.53136
  20
2.46396
  30
0
  11
3.51588
  21
2.45429
  31
0
  0
LINE
  8
0
  10
3.51588
  20
2.45429
  30
0
  11
3.50086
  21
2.44296
  31
0
  0
LINE
  8
0
  10
3.50086
  20
2.44296
  30
0
  11
3.48645
  21
2.42938
  31
0
  0
LINE
  8
0
  10
3.48645
  20
2.42938
  30
0
  11
3.47955
  21
2.42139
  31
0
  0
LINE
  8
0
  10
3.47955
  20
2.42139
  30
0
  11
3.47295
  21
2.41224
  31
0
  0
LINE
  8
0
  10
3.47295
  20
2.41224
  30
0
  11
3.46679
  21
2.40134
  31
0
  0
LINE
  8
0
  10
3.46679
  20
2.40134
  30
0
  11
3.46141
  21
2.38721
  31
0
  0
LINE
  8
0
  10
3.46141
  20
2.38721
  30
0
  11
3.46044
  21
2.35441
  31
0
  0
LINE
  8
0
  10
3.46044
  20
2.35441
  30
0
  11
3.48313
  21
2.23705
  31
0
  0
LINE
  8
0
  10
3.48313
  20
2.23705
  30
0
  11
3.49632
  21
2.11825
  31
0
  0
LINE
  8
0
  10
2.51378
  20
2.01378
  30
0
  11
2.51378
  21
2.01378
  31
0
  0
LINE
  8
0
  10
2.51378
  20
2.01378
  30
0
  11
2.49675
  21
2.14319
  31
0
  0
LINE
  8
0
  10
2.49675
  20
2.14319
  30
0
  11
2.4468
  21
2.26378
  31
0
  0
LINE
  8
0
  10
2.4468
  20
2.26378
  30
0
  11
2.36734
  21
2.36734
  31
0
  0
LINE
  8
0
  10
2.36734
  20
2.36734
  30
0
  11
2.26378
  21
2.4468
  31
0
  0
LINE
  8
0
  10
2.26378
  20
2.4468
  30
0
  11
2.14319
  21
2.49675
  31
0
  0
LINE
  8
0
  10
2.14319
  20
2.49675
  30
0
  11
2.01378
  21
2.51378
  31
0
  0
LINE
  8
0
  10
2.01378
  20
2.51378
  30
0
  11
1.88437
  21
2.49675
  31
0
  0
LINE
  8
0
  10
1.88437
  20
2.49675
  30
0
  11
1.76378
  21
2.4468
  31
0
  0
LINE
  8
0
  10
1.76378
  20
2.4468
  30
0
  11
1.66023
  21
2.36734
  31
0
  0
LINE
  8
0
  10
1.66023
  20
2.36734
  30
0
  11
1.58077
  21
2.26378
  31
0
  0
LINE
  8
0
  10
1.58077
  20
2.26378
  30
0
  11
1.53082
  21
2.14319
  31
0
  0
LINE
  8
0
  10
1.53082
  20
2.14319
  30
0
  11
1.51378
  21
2.01378
  31
0
  0
LINE
  8
0
  10
1.51378
  20
2.01378
  30
0
  11
1.53082
  21
1.88437
  31
0
  0
LINE
  8
0
  10
1.53082
  20
1.88437
  30
0
  11
1.58077
  21
1.76378
  31
0
  0
LINE
  8
0
  10
1.58077
  20
1.76378
  30
0
  11
1.66023
  21
1.66023
  31
0
  0
LINE
  8
0
  10
1.66023
  20
1.66023
  30
0
  11
1.76378
  21
1.58077
  31
0
  0
LINE
  8
0
  10
1.76378
  20
1.58077
  30
0
  11
1.88437
  21
1.53082
  31
0
  0
LINE
  8
0
  10
1.88437
  20
1.53082
  30
0
  11
2.01378
  21
1.51378
  31
0
  0
LINE
  8
0
  10
2.01378
  20
1.51378
  30
0
  11
2.14319
  21
1.53082
  31
0
  0
LINE
  8
0
  10
2.14319
  20
1.53082
  30
0
  11
2.26378
  21
1.58077
  31
0
  0
LINE
  8
0
  10
2.26378
  20
1.58077
  30
0
  11
2.36734
  21
1.66023
  31
0
  0
LINE
  8
0
  10
2.36734
  20
1.66023
  30
0
  11
2.4468
  21
1.76378
  31
0
  0
LINE
  8
0
  10
2.4468
  20
1.76378
  30
0
  11
2.49675
  21
1.88437
  31
0
  0
LINE
  8
0
  10
2.49675
  20
1.88437
  30
0
  11
2.51378
  21
2.01378
  31
0
  0
LINE
  8
0
  10
2.51378
  20
2.01378
  30
0
  11
2.51378
  21
2.01378
  31
0
  0
ENDSEC
  0
EOF
